<?xml version="1.0" encoding="utf-8"?>
<!-- Generator: Adobe Illustrator 26.0.2, SVG Export Plug-In . SVG Version: 6.00 Build 0)  -->
<svg version="1.1" id="Слой_1" xmlns="http://www.w3.org/2000/svg" xmlns:xlink="http://www.w3.org/1999/xlink" x="0px" y="0px"
	 viewBox="0 0 500 200" style="enable-background:new 0 0 500 200;" xml:space="preserve">
<style type="text/css">
	.st0{fill:#E52521;}
	.st1{fill-rule:evenodd;clip-rule:evenodd;fill:#020203;}
</style>
<path class="st0" d="M500,0H0v200h500V0z"/>
<path class="st1" d="M260.79,172.82c-2.5-2.17-5.54-6.56-5.49-10.8c0.22-3.16,2.39-4.99,3.79-1.14c1.98,4.26,6.22,11.29,12.07,7.16
	c2.55-1.88,2.52-4.64-0.99-4.32c-4.33-0.3-6.98-2.68-8.92-8.81c-0.35-3.37,1.05-3.29,3.01-1.12c2.52,2.89,7.52,7.25,13.04,4.91
	c3.07-1.29,3.93-3.94-0.7-4.59c-4.39,0.06-7.97-2.78-11.54-7.12c-1.96-2.4,0.93-4.82,2.66-2.78c1.54,1.33,3.71,3.77,5.56,4.11
	c2.14,0.42,4.8,0.21,7.74-1.35c3.17-2.66,2.14-4.57-1.71-5.01c-2.99,0.15-4.61,1.28-8.46-1.29c-6.92-4.68-12.43-10.93-13.29-18.45
	c-0.56-4.95,2.1-6.45,4.31-5.88c6.01,1.55,9.95,12.79,14.11,18.96c1.36,1.78,2.61,1.81,3.5,1.26c1.67-1.43,3-2.61,4.67-4.21
	c0,0,12.24,2.2,18.91,4.37l-7.42,2.64c-2.81-1.55-6.2,0.12-6.2,2.81c-2.66,1.84-2.45,4-1.3,6.08c0.35-1.45,0.65-3.33,2.75-3.58
	c3,1.24,6.49-0.53,6.49-2.87l8.76-3.44l8.85,5.01c0,3.39,3.21,4.46,6.55,3.54c1.57,0.98,2.58,2.67,3.12,4.48
	c0.98-2.61,0.78-4.46-0.76-5.74c0.89-3.38-3.85-6.63-7.52-4.46l-6.36-3.65l10.89-0.31c1.26,2.24,5.83,2.36,7.17,0
	c1.14-0.31,2.1-0.51,4.32,1.14c-0.7-2.67-2.06-3.81-4.11-3.81c-1.55-2.75-7.17-2.74-7.98,0.36l-11.35,0.32l6.73-4.79
	c2.51,1.48,6.04-0.17,6.75-2.86c1-1.19,2.24-1.75,4.67-0.94c-1.25-2.22-3.02-2.88-6.21-1.38c-2.91-2.2-6.75,0.47-6.16,2.69
	l-8.96,6.09c-6.5-1.94-18.28-4.96-18.28-4.96c1.4-1.47,2.82-2.85,4.22-4.34c0.51-0.88-0.27-1.9-1.34-2.11
	c-10.51-2.17-16.52-6.4-20.17-17.17c-1.52-4.51,1.77-5.86,2.9-3.1c1.57,3.84,3.3,8.03,8.01,11.27c1.63,1.14,6.47,0.21,3.61-2.51
	c-2.97-2.44-4.24-3.5-5.71-9.44c0-3.01,3.07-4.36,4.78-1.47c1.83,5.92,2.02,8.47,5.33,12.28c2.51,2.89,5.79,4.83,7.41,4.78
	c2.93-0.04,5.87-3.2,1.96-5.5c-5.75-2.3-7.85-5.43-8.7-8.43c-0.93-5.22,0.09-7.75,3.24-5.18c4.47,5.08,13,14.54,17.47,18.94
	c5.01,3.84,10.75,3.96,15.33,0.06c2.62-3.01,1.69-6.26-2.41-5.56c-9.25,0.78-16.25-3.81-23.94-16.22c-1.5-2.8-1.92-6.83,1.4-3.83
	c3.83,5.18,9.41,9.59,14.61,11.48c5.21,1.87,9.51,0.84,11.18-0.8c2.01-2.01,1.48-7.08-2-5.86c-2.86,1.01-6.9,1.26-11.1-0.36
	c-4.2-1.64-8.57-5.18-13.21-11.19c-1.59-3.39-1.07-6.26,2.14-4.51c7.6,6.45,17.41,11.67,22.41,8.53c3.69-2.3,3.75-8.2-0.93-7.82
	c-9.42,1.28-12.98-0.8-22.02-8.78c-2.06-1.54-1.92-5.44,1.36-2.95c7.6,4.91,17.98,6.82,22.06,4.26c3.67-2.3,3.13-9.31-3.05-6.83
	c-4.95,3.01-10.4,2.93-21.34-4.89c-2.76-2.3-0.7-5.29,1.56-4c8.8,5.01,21.61,7.16,24.95-3.03c1.3-3.9-1.05-6.17-4.49-3.48
	c-7.56,6.99-16.13,3.56-20.93,0.04c-1.37-0.81-3.89-4.91,0.53-4.15c11.45,2.61,22.78,0.34,24.85-7.77c1.2-2.63-1.16-7.29-5.34-3.39
	c-5.5,5.43-11.33,5.62-18.66,5.58c-3.73-0.78-3.77-4.89-0.64-5.5c5.79,0.12,11.49-2.4,16.07-4.97c4.47-2.57,8.18-6.17,9.35-11.17
	c0.72-4.47-3.59-9.21-6.18-4.47c-3.83,6.93-12.32,13.46-21.76,14.64c-0.49-0.82-1.73-2.93-3.25-2.34c-2.77,1.07-6.07,2.51-9.47,4.13
	c-7.33,3.48-10.38,5.16-9.5,11.17c0.92,6.27-3.92,10.24-7.91,9.14c-3.48-0.94-5.41-4.08-4.78-9.54c0.5-4.35,4.87-9.61,9.79-12.37
	c3.18-1.78,7.99-2.76,13.78-4.04c3.52-0.69,5.32-2.06,5.52-3.5c0,0-2.41,1.76-6.26,1.5c-1.82-0.13-3.04-0.93-3.5-1.75
	c1.34-0.27,3.77,0.04,5.95,0.04c2.9-0.02,9.65-0.67,11.43-4.76c0.56-2.7-1.22-3.18-2.86-1.45c-1.77,1.87-2.5,3.54-6.06,4.17
	c-2.16,0.38-4.33,0.82-7.11,0.15c1.57-1.86,4.06-3.77,6.18-3.41c0.7,0.12,1.63,0.76,2.37,1.92c0.45-2.95-0.35-6.28-8.24-4.89
	c0.13-2.23-4.57-3.2-7.39-3.16c-1.61,0.04-4.88,0.99-7.25,2.13c-3.75,1.16-7.46,2-11.83,2.32c2.54,2.17,3.01,2.3,5.54,4.13
	c-3.83,1.43-6.8,4.38-8.14,6.32c0,0,4.47-0.12,5.6,0.38c-4.68,1.37-6.78,2.19-9.25,4.72c0.87,0.15,2.16,0.4,2.72,0.61
	c0.58,0.21,0.43,0.59-0.04,0.95c-1.01,0.77-5.17,5.61-6.39,6.76c-1.22-1.16-5.38-5.99-6.39-6.76c-0.47-0.36-0.62-0.74-0.04-0.95
	c0.56-0.21,1.85-0.46,2.72-0.61c-2.47-2.53-4.57-3.35-9.25-4.72c1.13-0.51,5.6-0.38,5.6-0.38c-1.34-1.94-4.31-4.89-8.14-6.32
	c2.53-1.83,3.01-1.96,5.54-4.13c-4.37-0.32-8.08-1.16-11.83-2.32c-2.37-1.13-5.64-2.08-7.25-2.12c-2.82-0.04-7.52,0.93-7.39,3.16
	c-7.89-1.39-8.7,1.94-8.24,4.89c0.74-1.16,1.67-1.8,2.37-1.92c2.12-0.35,4.61,1.55,6.18,3.41c-2.78,0.67-4.95,0.23-7.11-0.15
	c-3.55-0.63-4.28-2.31-6.06-4.17c-1.65-1.73-3.42-1.24-2.86,1.45c1.79,4.09,8.53,4.74,11.43,4.76c2.18,0,4.61-0.32,5.95-0.04
	c-0.46,0.82-1.68,1.62-3.5,1.75c-3.85,0.26-6.26-1.5-6.26-1.5c0.2,1.43,2,2.8,5.52,3.5c5.79,1.29,10.6,2.26,13.78,4.04
	c4.92,2.76,9.29,8.02,9.79,12.37c0.62,5.46-1.3,8.6-4.78,9.54c-3.99,1.09-8.83-2.87-7.91-9.14c0.88-6.01-2.17-7.69-9.5-11.17
	c-3.4-1.61-6.7-3.05-9.47-4.13c-1.52-0.59-2.76,1.52-3.25,2.34c-9.44-1.18-17.92-7.71-21.76-14.64c-2.59-4.74-6.9,0-6.18,4.47
	c1.18,4.99,4.88,8.6,9.35,11.17c4.57,2.57,10.28,5.1,16.07,4.97c3.13,0.61,3.09,4.72-0.64,5.5c-7.33,0.04-13.16-0.15-18.66-5.58
	c-4.18-3.9-6.53,0.76-5.34,3.39c2.06,8.11,13.39,10.39,24.84,7.77c4.43-0.76,1.91,3.34,0.53,4.15c-4.8,3.52-13.37,6.95-20.93-0.04
	c-3.44-2.7-5.79-0.42-4.49,3.48c3.34,10.2,16.15,8.05,24.95,3.03c2.27-1.29,4.32,1.71,1.56,4c-10.94,7.81-16.4,7.9-21.34,4.89
	c-6.18-2.49-6.72,4.53-3.05,6.83c4.08,2.57,14.46,0.65,22.06-4.26c3.28-2.49,3.42,1.41,1.36,2.95c-9.04,7.98-12.61,10.07-22.02,8.78
	c-4.68-0.38-4.61,5.52-0.93,7.82c5,3.14,14.81-2.08,22.41-8.53c3.21-1.75,3.73,1.12,2.14,4.51c-4.64,6-9,9.54-13.21,11.19
	c-4.2,1.62-8.24,1.37-11.1,0.36c-3.48-1.22-4.01,3.84-2,5.86c1.67,1.64,5.97,2.67,11.18,0.8c5.19-1.9,10.78-6.3,14.61-11.48
	c3.32-2.99,2.91,1.03,1.4,3.83c-7.68,12.41-14.69,17-23.94,16.22c-4.1-0.69-5.03,2.55-2.41,5.56c4.57,3.9,10.32,3.77,15.33-0.06
	c4.47-4.4,13-13.86,17.47-18.94c3.15-2.57,4.16-0.04,3.24,5.18c-0.85,2.99-2.95,6.13-8.7,8.43c-3.92,2.3-0.97,5.46,1.96,5.5
	c1.63,0.04,4.9-1.9,7.41-4.78c3.32-3.81,3.5-6.36,5.33-12.28c1.71-2.89,4.78-1.54,4.78,1.47c-1.46,5.94-2.74,6.99-5.71,9.44
	c-2.87,2.72,1.98,3.65,3.61,2.51c4.72-3.25,6.45-7.44,8.01-11.27c1.13-2.76,4.43-1.41,2.9,3.1c-3.64,10.76-9.66,15-20.17,17.17
	c-1.07,0.21-1.85,1.23-1.34,2.11c1.4,1.5,2.82,2.87,4.22,4.34c0,0-11.78,3.02-18.28,4.96l-8.96-6.09c0.58-2.22-3.25-4.89-6.16-2.69
	c-3.19-1.51-4.96-0.84-6.21,1.38c2.43-0.81,3.67-0.25,4.67,0.94c0.71,2.7,4.23,4.35,6.75,2.86l6.73,4.79l-11.35-0.32
	c-0.81-3.1-6.43-3.11-7.99-0.36c-2.04,0-3.41,1.14-4.11,3.81c2.22-1.65,3.19-1.45,4.32-1.14c1.33,2.36,5.9,2.24,7.17,0l10.89,0.31
	l-6.36,3.65c-3.67-2.16-8.4,1.09-7.52,4.46c-1.54,1.28-1.75,3.13-0.76,5.74c0.53-1.81,1.54-3.51,3.12-4.48
	c3.34,0.91,6.55-0.16,6.55-3.54l8.85-5.01l8.76,3.44c0,2.34,3.49,4.11,6.49,2.87c2.1,0.25,2.4,2.13,2.75,3.58
	c1.15-2.08,1.36-4.24-1.3-6.08c0-2.69-3.39-4.37-6.2-2.81l-7.42-2.64c6.67-2.17,18.91-4.37,18.91-4.37c1.67,1.6,3,2.78,4.67,4.21
	c0.89,0.55,2.14,0.52,3.5-1.26c4.16-6.17,8.1-17.42,14.11-18.96c2.21-0.57,4.87,0.93,4.31,5.88c-0.86,7.52-6.36,13.77-13.29,18.45
	c-3.85,2.57-5.48,1.43-8.47,1.29c-3.85,0.44-4.88,2.36-1.71,5.01c2.94,1.56,5.6,1.77,7.74,1.35c1.85-0.34,4.02-2.78,5.56-4.11
	c1.73-2.04,4.62,0.38,2.66,2.78c-3.57,4.34-7.15,7.18-11.54,7.12c-4.64,0.65-3.77,3.31-0.7,4.59c5.52,2.34,10.53-2.02,13.04-4.91
	c1.96-2.17,3.36-2.25,3.01,1.12c-1.94,6.13-4.59,8.51-8.92,8.81c-3.5-0.32-3.54,2.44-0.99,4.32c5.85,4.13,10.09-2.91,12.07-7.16
	c1.4-3.86,3.57-2.02,3.79,1.14c0.04,4.24-2.99,8.63-5.49,10.8c-2.5,2.17,10.79,15.97,10.79,15.97S263.29,174.99,260.79,172.82
	L260.79,172.82z M278.6,16.57c-2.07,0-3.35,0.72-3.35,1.6c0,0.89,1.28,1.62,3.35,1.62c2.06,0,3.36-0.79,3.36-1.69
	C281.96,17.23,280.65,16.57,278.6,16.57L278.6,16.57z M221.4,16.57c2.07,0,3.35,0.72,3.35,1.6c0,0.89-1.28,1.62-3.35,1.62
	c-2.06,0-3.36-0.79-3.36-1.69C218.04,17.23,219.35,16.57,221.4,16.57L221.4,16.57z"/>
</svg>
