<svg id="svg" version="1.1" xmlns="http://www.w3.org/2000/svg" xmlns:xlink="http://www.w3.org/1999/xlink" width="400" height="217.08333333333331" viewBox="0, 0, 400,217.08333333333331"><g id="svgg"><path id="path0" d="M0.000 54.161 L 0.000 108.322 6.875 108.380 L 13.750 108.438 13.750 97.669 C 13.750 91.746,13.676 86.854,13.585 86.797 C 13.494 86.741,12.881 86.914,12.223 87.182 L 11.026 87.668 11.160 87.219 C 11.425 86.334,12.106 84.904,12.436 84.539 C 12.751 84.190,13.475 84.167,23.756 84.167 L 34.740 84.167 34.870 84.818 C 34.941 85.176,35.000 90.637,35.000 96.953 L 35.000 108.438 39.247 108.377 L 43.495 108.317 43.652 103.169 C 43.803 98.212,43.662 86.926,43.446 86.710 C 43.388 86.652,42.804 86.803,42.148 87.044 C 41.492 87.286,40.926 87.454,40.889 87.417 C 40.778 87.305,41.646 85.406,42.100 84.768 L 42.528 84.167 46.895 84.167 L 51.262 84.167 52.558 84.816 C 61.107 89.101,64.566 97.582,61.588 106.959 L 61.119 108.438 65.462 108.438 L 69.806 108.438 70.412 106.458 C 70.745 105.370,71.779 101.807,72.710 98.542 C 73.640 95.276,74.813 91.245,75.316 89.583 C 75.819 87.922,76.567 85.391,76.979 83.959 C 77.678 81.529,78.125 80.489,78.125 81.291 C 78.125 81.978,80.991 107.127,81.152 107.858 C 81.254 108.319,81.265 108.320,86.773 108.379 L 92.292 108.438 92.289 97.917 C 92.287 91.793,92.204 87.268,92.091 87.089 C 91.898 86.783,91.567 86.831,89.738 87.430 C 89.430 87.530,89.481 87.288,90.058 85.910 L 90.745 84.271 96.055 84.271 L 101.365 84.271 102.748 84.952 C 110.023 88.536,111.489 97.919,105.968 105.563 C 104.353 107.798,104.425 107.567,105.191 108.052 C 105.746 108.404,106.233 108.432,110.816 108.378 L 115.833 108.319 115.833 97.609 C 115.833 91.176,115.755 86.851,115.638 86.779 C 115.531 86.713,114.950 86.846,114.349 87.074 C 113.747 87.303,113.221 87.457,113.181 87.417 C 113.071 87.307,113.879 85.257,114.261 84.673 L 114.593 84.167 119.250 84.167 L 123.906 84.167 124.036 84.818 C 124.108 85.176,124.167 90.613,124.167 96.901 L 124.167 108.333 125.386 108.333 L 126.605 108.333 131.573 95.612 C 134.305 88.615,136.616 82.844,136.708 82.787 C 136.800 82.730,136.875 88.455,136.875 95.509 L 136.875 108.333 141.250 108.333 L 145.625 108.333 145.625 97.598 C 145.625 85.453,145.749 86.219,143.931 87.162 C 143.352 87.463,142.841 87.708,142.795 87.708 C 142.619 87.708,143.782 84.894,144.105 84.536 C 144.418 84.190,144.834 84.164,149.150 84.215 L 153.854 84.271 153.854 98.941 C 153.854 109.595,153.918 113.632,154.088 113.689 C 154.221 113.733,154.766 112.625,155.359 111.102 C 161.232 96.013,164.778 86.868,165.358 85.313 C 166.706 81.702,166.664 81.377,166.691 95.528 C 166.705 102.514,166.713 108.276,166.709 108.333 C 166.704 108.391,168.920 108.411,171.632 108.378 L 176.563 108.319 176.655 100.357 C 176.800 87.959,176.770 85.221,176.479 83.890 C 176.142 82.346,176.163 82.334,177.516 83.354 C 178.137 83.822,180.427 85.074,182.604 86.136 C 192.129 90.782,194.914 96.174,192.720 105.719 C 192.065 108.569,191.869 108.333,194.899 108.333 L 197.507 108.333 197.388 103.906 C 197.322 101.471,197.182 97.792,197.075 95.729 C 196.706 88.548,196.570 72.446,196.874 71.870 C 197.249 71.162,201.174 65.739,201.520 65.452 C 201.777 65.239,205.451 69.857,206.415 71.604 C 206.872 72.432,206.686 87.909,206.048 102.083 C 205.937 104.547,205.843 106.961,205.840 107.448 L 205.833 108.333 208.564 108.333 L 211.295 108.333 211.149 107.760 C 208.401 96.978,210.796 91.107,219.730 86.731 C 223.900 84.688,225.119 84.001,226.431 82.951 C 227.129 82.393,227.313 82.316,227.219 82.622 C 226.598 84.641,226.530 87.142,226.764 99.323 L 226.937 108.333 231.381 108.333 C 235.824 108.333,235.825 108.333,235.918 107.865 C 235.969 107.607,236.117 106.177,236.248 104.688 C 237.146 94.443,241.253 85.551,246.250 83.032 C 248.594 81.851,249.957 82.273,251.925 84.792 L 252.495 85.521 252.498 83.832 L 252.500 82.143 254.549 81.592 C 255.675 81.289,256.719 81.042,256.869 81.042 C 257.217 81.042,257.118 82.061,256.035 89.626 C 255.580 92.801,255.205 95.661,255.201 95.981 L 255.194 96.563 254.901 96.042 C 254.740 95.755,254.545 95.146,254.466 94.688 C 254.049 92.254,251.821 87.347,250.528 86.016 C 246.594 81.965,243.150 91.380,243.128 106.250 L 243.125 108.438 252.708 108.438 L 262.292 108.438 262.292 97.483 C 262.292 91.457,262.239 86.475,262.175 86.411 C 262.111 86.347,261.572 86.424,260.977 86.582 C 260.382 86.741,259.862 86.871,259.821 86.873 C 259.687 86.877,260.024 85.752,260.459 84.740 L 260.885 83.750 268.038 83.750 L 275.191 83.750 275.700 84.635 C 275.981 85.122,276.774 86.880,277.463 88.542 C 279.648 93.808,279.626 93.482,277.661 91.431 C 274.726 88.368,272.188 86.478,270.990 86.463 C 270.648 86.459,270.625 87.026,270.625 95.497 L 270.625 104.536 272.810 104.617 C 275.340 104.711,275.289 104.679,276.429 106.846 L 277.223 108.354 280.665 108.396 L 284.106 108.438 284.221 98.333 C 284.332 88.612,284.235 86.250,283.726 86.250 C 283.617 86.250,283.062 86.486,282.494 86.774 L 281.459 87.298 281.966 85.953 C 282.887 83.507,282.252 83.750,287.716 83.750 L 292.500 83.750 292.500 96.042 L 292.500 108.333 293.631 108.333 C 294.537 108.333,294.778 108.406,294.844 108.698 C 294.890 108.898,294.945 108.078,294.967 106.875 C 295.161 95.937,298.299 87.679,303.530 84.341 C 306.196 82.640,308.020 84.878,307.973 89.792 C 307.936 93.697,307.939 93.691,305.625 94.820 C 302.881 96.159,302.651 96.218,302.916 95.523 C 304.048 92.544,304.837 86.250,304.078 86.250 C 302.530 86.250,300.929 90.319,300.104 96.354 C 299.839 98.288,298.962 107.266,298.959 108.069 C 298.959 108.267,301.125 108.338,308.542 108.381 L 318.125 108.438 318.125 97.344 C 318.125 91.242,318.090 86.250,318.047 86.250 C 316.868 86.250,314.424 88.014,311.615 90.892 C 310.383 92.154,309.375 93.136,309.375 93.076 C 309.375 92.893,311.005 89.029,312.233 86.300 L 313.383 83.746 322.342 83.800 L 331.301 83.854 333.214 88.333 C 335.406 93.466,335.509 93.723,335.259 93.438 C 331.394 89.018,329.039 87.020,326.927 86.367 L 326.458 86.222 326.458 97.330 L 326.458 108.438 331.198 108.333 L 335.938 108.229 336.083 106.146 C 336.893 94.533,339.808 86.897,344.951 82.917 L 345.624 82.396 345.316 80.537 C 344.950 78.328,344.977 78.276,346.744 77.737 C 349.954 76.758,349.880 76.696,349.468 80.025 C 349.247 81.804,349.217 82.621,349.371 82.672 C 354.217 84.288,358.361 94.328,359.273 106.667 L 359.404 108.438 362.195 108.438 L 364.986 108.438 364.996 97.443 C 365.008 85.096,365.139 85.961,363.364 86.636 C 362.120 87.108,362.136 87.142,362.806 85.433 C 363.594 83.423,363.198 83.557,368.194 83.616 C 373.074 83.673,372.872 83.626,375.313 85.265 C 383.180 90.549,385.608 97.941,382.471 107.064 C 382.258 107.683,382.083 108.222,382.083 108.262 C 382.083 108.301,386.115 108.333,391.042 108.333 L 400.000 108.333 400.000 54.167 L 400.000 0.000 200.000 0.000 L 0.000 0.000 0.000 54.161 M201.390 74.734 C 200.930 75.478,200.397 90.889,200.425 102.604 L 200.439 108.438 201.678 108.367 L 202.917 108.296 202.909 100.450 C 202.892 82.546,202.339 73.198,201.390 74.734 M161.458 78.048 C 161.458 78.464,161.321 79.706,161.153 80.808 C 160.899 82.478,160.125 88.222,159.667 91.842 C 159.604 92.339,159.508 92.703,159.455 92.649 C 159.379 92.573,157.237 81.909,156.780 79.327 C 156.656 78.629,156.951 78.447,159.271 77.792 C 161.489 77.166,161.458 77.162,161.458 78.048 M22.229 86.798 C 22.149 86.878,22.106 94.733,22.134 104.253 C 22.161 113.773,22.209 118.586,22.241 114.948 L 22.298 108.333 24.376 108.333 L 26.455 108.333 26.511 121.094 C 26.541 128.112,26.565 123.260,26.564 110.313 L 26.563 86.771 24.469 86.712 C 23.317 86.680,22.309 86.718,22.229 86.798 M100.579 96.048 C 100.554 101.201,100.531 106.049,100.527 106.823 C 100.520 108.318,101.305 109.212,101.385 107.801 C 101.403 107.500,101.656 107.004,101.948 106.699 C 104.202 104.347,105.338 96.254,103.989 92.161 C 103.307 90.090,101.647 87.058,101.082 86.849 L 100.625 86.680 100.579 96.048 M373.252 87.335 C 373.178 87.703,373.123 92.602,373.128 98.221 L 373.139 108.438 375.246 108.371 C 376.686 108.325,377.401 108.381,377.503 108.546 C 377.674 108.823,378.420 106.182,378.740 104.167 C 379.623 98.609,377.766 91.269,374.551 87.617 C 373.557 86.487,373.427 86.459,373.252 87.335 M51.984 88.178 C 51.913 88.779,51.883 93.536,51.917 98.750 L 51.979 108.229 54.331 108.333 L 56.682 108.438 56.976 107.449 C 58.731 101.528,57.392 93.604,53.812 88.720 C 52.491 86.918,52.145 86.815,51.984 88.178 M345.352 88.177 C 343.811 91.473,342.709 98.667,342.425 107.292 C 342.381 108.609,342.387 109.383,342.436 109.010 L 342.526 108.333 347.338 108.333 L 352.149 108.333 352.016 104.531 C 351.744 96.716,349.712 86.881,348.521 87.617 C 348.442 87.666,348.266 88.527,348.132 89.530 C 347.743 92.425,347.622 92.615,347.317 90.818 C 346.919 88.473,346.486 87.083,346.155 87.083 C 345.995 87.083,345.633 87.576,345.352 88.177 M220.094 91.086 C 215.393 94.168,214.158 97.240,214.979 103.812 C 215.240 105.898,215.470 107.745,215.490 107.917 C 215.520 108.174,216.028 108.239,218.388 108.287 L 221.250 108.345 221.260 106.725 C 221.274 104.591,221.631 96.209,221.848 92.917 C 222.060 89.713,222.110 89.765,220.094 91.086 M181.465 91.380 C 181.469 91.939,181.558 93.052,181.663 93.854 C 181.768 94.656,181.970 98.266,182.112 101.875 L 182.370 108.438 185.035 108.438 L 187.700 108.438 187.916 107.396 C 188.708 103.580,188.929 99.547,188.447 97.736 C 187.597 94.541,184.474 90.960,182.135 90.498 L 181.458 90.365 181.465 91.380 M270.833 107.829 C 270.833 108.037,271.091 108.125,271.701 108.125 C 272.712 108.125,272.693 108.041,271.615 107.747 C 270.979 107.573,270.833 107.589,270.833 107.829 M51.923 109.167 C 51.923 109.568,51.966 109.732,52.019 109.531 C 52.071 109.331,52.071 109.003,52.019 108.802 C 51.966 108.602,51.923 108.766,51.923 109.167 M364.889 122.604 C 364.889 129.365,364.916 132.100,364.948 128.683 C 364.980 125.266,364.980 119.735,364.948 116.391 C 364.916 113.048,364.889 115.844,364.889 122.604 M342.351 113.438 C 342.353 114.010,342.393 114.220,342.441 113.903 C 342.489 113.587,342.488 113.118,342.438 112.862 C 342.389 112.605,342.350 112.865,342.351 113.438 M182.152 114.479 C 182.153 115.281,182.190 115.584,182.235 115.152 C 182.280 114.719,182.280 114.063,182.234 113.693 C 182.188 113.323,182.151 113.677,182.152 114.479 M51.935 114.479 C 51.936 115.052,51.977 115.262,52.024 114.945 C 52.072 114.628,52.071 114.160,52.022 113.903 C 51.972 113.647,51.933 113.906,51.935 114.479 M197.780 117.813 C 197.781 118.729,197.817 119.078,197.861 118.588 C 197.905 118.098,197.905 117.348,197.860 116.922 C 197.815 116.495,197.779 116.896,197.780 117.813 M202.965 117.708 C 202.965 118.109,203.008 118.273,203.060 118.073 C 203.113 117.872,203.113 117.544,203.060 117.344 C 203.008 117.143,202.965 117.307,202.965 117.708 M100.512 126.146 C 100.512 130.958,100.539 132.897,100.573 130.455 C 100.606 128.012,100.606 124.075,100.573 121.705 C 100.539 119.335,100.512 121.333,100.512 126.146 M51.945 121.458 C 51.945 122.318,51.982 122.669,52.027 122.240 C 52.072 121.810,52.072 121.107,52.027 120.677 C 51.982 120.247,51.945 120.599,51.945 121.458 M70.573 122.028 C 71.060 122.071,71.857 122.071,72.344 122.028 C 72.831 121.984,72.432 121.948,71.458 121.948 C 70.484 121.948,70.086 121.984,70.573 122.028 M225.476 122.813 C 225.478 123.385,225.518 123.595,225.566 123.278 C 225.614 122.962,225.613 122.493,225.563 122.237 C 225.514 121.980,225.475 122.240,225.476 122.813 M225.483 125.417 C 225.483 126.161,225.521 126.466,225.567 126.094 C 225.614 125.721,225.614 125.112,225.567 124.740 C 225.521 124.367,225.483 124.672,225.483 125.417 M68.490 125.355 C 68.747 125.405,69.169 125.405,69.427 125.355 C 69.685 125.306,69.474 125.265,68.958 125.265 C 68.443 125.265,68.232 125.306,68.490 125.355 M22.171 130.000 C 22.171 132.234,22.201 133.148,22.239 132.031 C 22.276 130.914,22.276 129.086,22.239 127.969 C 22.201 126.852,22.171 127.766,22.171 130.000 M200.791 128.488 C 201.742 128.527,203.242 128.527,204.124 128.488 C 205.007 128.449,204.229 128.417,202.396 128.418 C 200.563 128.418,199.840 128.450,200.791 128.488 M192.138 131.191 C 192.455 131.239,192.924 131.238,193.180 131.188 C 193.436 131.139,193.177 131.100,192.604 131.101 C 192.031 131.103,191.822 131.143,192.138 131.191 M51.954 134.583 C 51.954 135.901,51.988 136.440,52.029 135.781 C 52.070 135.122,52.070 134.044,52.029 133.385 C 51.988 132.727,51.954 133.266,51.954 134.583 M104.258 135.260 L 103.646 135.938 104.323 135.326 C 104.954 134.755,105.096 134.583,104.935 134.583 C 104.899 134.583,104.594 134.888,104.258 135.260 " stroke="none" fill="#cc0000" fill-rule="evenodd"></path><path id="path1" d="M270.764 108.264 C 270.509 108.519,270.600 135.208,270.856 135.208 C 272.227 135.208,275.898 132.108,279.127 128.225 L 279.816 127.396 279.307 128.750 C 279.028 129.495,278.289 131.276,277.666 132.708 C 277.043 134.141,276.322 135.843,276.063 136.490 C 275.464 137.992,275.911 137.910,268.271 137.914 L 261.854 137.917 262.021 136.615 C 262.113 135.898,262.188 129.266,262.188 121.875 L 262.188 108.438 252.708 108.438 L 243.229 108.438 243.162 110.729 C 242.891 120.003,244.734 132.011,246.883 134.978 C 248.975 137.866,252.035 132.761,253.543 123.869 C 253.775 122.502,254.004 121.344,254.052 121.295 C 254.157 121.190,255.369 123.595,256.037 125.235 L 256.514 126.408 256.054 127.944 C 250.019 148.070,236.674 137.744,235.893 112.344 L 235.770 108.333 231.335 108.333 L 226.901 108.333 226.782 109.219 C 224.984 122.637,225.264 132.743,227.620 139.421 C 227.983 140.449,227.972 140.465,227.070 140.197 C 223.673 139.186,218.425 138.648,214.802 138.939 L 212.419 139.131 211.053 140.588 C 209.656 142.079,208.865 142.547,207.294 142.812 C 206.402 142.963,206.402 142.963,206.544 142.395 C 206.623 142.082,206.743 141.544,206.813 141.198 C 206.895 140.787,207.155 140.453,207.565 140.233 C 209.839 139.010,210.216 137.287,208.806 134.563 L 207.988 132.980 208.503 132.376 C 209.453 131.262,209.973 131.045,211.686 131.043 C 215.256 131.040,217.595 129.463,218.118 126.704 C 218.847 122.862,215.574 120.062,211.464 121.011 C 210.333 121.273,210.453 121.411,210.296 119.675 C 210.171 118.301,210.202 118.156,210.921 116.748 C 212.161 114.320,212.305 111.243,211.304 108.594 C 211.232 108.404,210.481 108.333,208.542 108.333 L 205.879 108.333 205.729 112.552 C 205.488 119.358,205.578 120.487,206.510 122.301 C 207.416 124.066,207.422 124.002,206.381 123.643 C 203.444 122.631,202.935 121.072,202.923 113.063 L 202.917 108.313 201.719 108.375 L 200.521 108.438 200.417 114.375 C 200.291 121.561,200.095 122.144,197.352 123.519 C 196.049 124.172,196.011 124.093,196.842 122.474 L 197.604 120.989 197.672 116.172 C 197.709 113.522,197.677 110.674,197.602 109.844 L 197.464 108.333 194.800 108.333 L 192.136 108.333 191.772 110.070 C 191.243 112.592,191.396 114.261,192.355 116.416 C 193.342 118.634,193.445 121.503,192.525 121.141 C 189.787 120.062,186.096 121.651,185.405 124.207 C 184.372 128.028,187.187 131.042,191.788 131.042 L 193.501 131.042 194.511 131.963 C 195.467 132.834,195.505 132.910,195.226 133.369 C 193.274 136.579,193.350 138.849,195.444 139.910 C 196.341 140.364,196.440 140.492,196.648 141.463 C 196.969 142.959,196.979 142.938,195.990 142.786 C 194.659 142.582,193.998 142.181,192.387 140.599 L 190.919 139.158 188.684 138.962 C 185.129 138.649,180.068 139.137,176.701 140.116 C 175.293 140.525,175.339 140.691,176.143 138.125 C 178.070 131.973,178.335 125.023,177.092 113.229 C 176.863 111.052,176.673 109.058,176.671 108.798 L 176.667 108.326 171.719 108.382 L 166.771 108.438 166.771 122.396 C 166.771 138.434,166.631 137.182,168.362 136.658 C 169.938 136.181,169.966 136.200,169.341 137.331 L 168.846 138.229 163.590 138.285 L 158.333 138.340 158.333 124.587 C 158.333 115.681,158.261 110.833,158.128 110.833 C 157.861 110.833,158.047 110.382,152.402 124.792 C 149.731 131.609,147.117 138.219,146.592 139.479 L 145.639 141.771 145.632 125.052 L 145.625 108.333 141.243 108.333 L 136.861 108.333 136.920 122.587 C 136.953 130.426,137.039 136.900,137.111 136.973 C 137.226 137.087,138.746 136.633,139.840 136.157 C 140.347 135.937,139.953 137.057,139.262 137.803 L 138.763 138.341 133.704 138.285 L 128.646 138.229 128.542 124.167 L 128.438 110.104 127.351 112.728 C 126.753 114.171,125.473 117.405,124.506 119.915 C 123.539 122.425,121.565 127.479,120.119 131.146 C 118.673 134.813,117.199 138.563,116.844 139.479 C 116.489 140.396,116.116 141.235,116.016 141.344 C 115.911 141.457,115.833 134.464,115.833 124.938 L 115.833 108.333 110.938 108.333 C 108.245 108.333,106.042 108.370,106.042 108.415 C 106.042 108.461,106.338 108.812,106.700 109.197 C 113.260 116.159,111.466 129.590,103.068 136.404 C 100.789 138.253,100.524 138.323,95.813 138.329 L 91.730 138.333 91.947 137.135 C 92.083 136.387,92.169 130.777,92.176 122.188 L 92.188 108.438 86.719 108.382 C 83.711 108.351,81.250 108.385,81.250 108.456 C 81.250 108.749,84.379 135.576,84.486 136.198 C 84.631 137.041,85.136 137.087,86.527 136.383 C 87.680 135.799,87.675 135.788,86.860 137.214 L 86.219 138.333 81.162 138.333 L 76.105 138.333 75.977 136.198 C 75.870 134.412,75.227 128.523,74.876 126.112 L 74.780 125.453 73.036 125.308 C 72.076 125.228,70.509 125.243,69.552 125.342 L 67.813 125.521 67.566 126.354 C 67.072 128.029,65.037 135.540,64.900 136.198 C 64.727 137.028,65.419 137.112,67.240 136.484 C 68.516 136.043,68.529 136.068,67.713 137.355 L 67.093 138.333 63.646 138.333 L 60.200 138.333 60.844 137.240 C 61.199 136.638,61.635 135.818,61.815 135.417 C 62.271 134.398,69.748 108.681,69.644 108.490 C 69.597 108.404,67.693 108.333,65.413 108.333 L 61.267 108.333 60.118 110.580 C 58.292 114.149,55.618 117.104,52.442 119.063 C 51.986 119.344,51.762 125.609,51.975 132.135 C 52.153 137.576,51.980 137.246,54.238 136.470 C 55.620 135.994,55.611 135.979,54.743 137.304 L 54.069 138.333 48.573 138.333 L 43.076 138.333 43.247 137.865 C 43.341 137.607,43.450 130.855,43.488 122.860 L 43.558 108.325 39.331 108.381 L 35.104 108.438 35.051 122.656 L 34.997 136.875 35.525 136.875 C 35.815 136.875,36.565 136.695,37.193 136.474 C 38.536 136.002,38.518 135.972,37.656 137.290 L 36.979 138.326 31.856 138.330 L 26.732 138.333 26.595 134.863 C 26.520 132.954,26.458 126.204,26.458 119.863 L 26.458 108.333 24.375 108.333 L 22.292 108.333 22.291 120.052 C 22.291 126.497,22.229 133.247,22.154 135.052 L 22.018 138.333 17.713 138.333 L 13.409 138.333 13.581 136.892 C 13.676 136.099,13.729 129.372,13.699 121.944 L 13.646 108.438 6.823 108.383 L 0.000 108.328 0.000 162.705 L 0.000 217.083 200.000 217.083 L 400.000 217.083 400.000 162.708 L 400.000 108.333 391.060 108.333 L 382.119 108.333 381.276 110.075 C 379.723 113.283,377.060 116.365,374.271 118.182 L 373.229 118.860 373.229 127.538 C 373.229 132.311,373.302 136.288,373.391 136.377 C 373.480 136.466,374.212 136.345,375.018 136.107 C 376.632 135.632,376.639 135.642,375.739 137.067 L 375.203 137.917 369.789 137.917 C 366.811 137.917,364.375 137.846,364.375 137.759 C 364.375 137.672,364.463 137.294,364.571 136.918 C 364.683 136.529,364.784 130.262,364.806 122.336 L 364.845 108.438 362.162 108.438 L 359.479 108.438 359.349 112.188 C 358.496 136.783,346.315 147.423,339.136 129.845 C 337.127 124.927,335.836 117.308,335.834 110.361 L 335.833 108.325 331.198 108.381 L 326.563 108.438 326.509 122.448 C 326.448 138.464,326.199 136.787,328.529 136.062 L 329.803 135.665 329.183 136.739 L 328.563 137.813 323.134 137.868 L 317.704 137.924 317.862 136.722 C 317.950 136.061,318.021 129.427,318.021 121.979 L 318.021 108.438 308.510 108.383 L 299.000 108.329 298.860 109.633 C 298.644 111.659,297.716 117.612,297.301 119.639 L 296.927 121.466 297.995 121.306 C 299.697 121.051,301.312 121.166,302.325 121.614 C 305.033 122.812,307.073 128.029,307.082 133.776 C 307.085 136.297,307.283 136.529,308.932 135.947 C 309.948 135.588,309.949 135.592,309.238 136.899 L 308.684 137.917 303.921 137.917 L 299.159 137.917 299.303 137.344 C 299.607 136.134,299.465 129.747,299.101 128.273 C 298.268 124.897,296.886 123.747,294.672 124.589 C 293.877 124.892,293.882 124.928,294.267 121.629 C 294.459 119.988,294.670 116.326,294.735 113.490 L 294.854 108.333 293.677 108.333 L 292.500 108.333 292.500 122.396 C 292.500 138.460,292.248 136.785,294.556 136.066 L 295.815 135.674 295.313 136.665 C 294.655 137.965,294.893 137.917,289.098 137.917 L 284.063 137.917 284.063 123.177 L 284.063 108.438 280.947 108.380 C 276.967 108.306,277.125 108.222,277.992 109.943 C 278.382 110.719,278.853 111.717,279.038 112.161 L 279.375 112.967 277.932 111.606 C 274.986 108.827,271.722 107.305,270.764 108.264 M51.973 109.886 C 51.893 110.739,51.911 112.497,52.013 113.792 L 52.198 116.146 53.052 115.279 C 54.335 113.977,56.867 109.035,56.531 108.490 C 56.477 108.404,55.463 108.333,54.276 108.333 L 52.119 108.333 51.973 109.886 M72.438 108.474 C 72.316 108.671,69.015 120.918,68.916 121.537 C 68.858 121.901,69.037 121.930,71.531 121.953 L 74.207 121.979 74.118 120.521 C 73.815 115.592,72.752 107.966,72.438 108.474 M100.576 121.682 C 100.546 129.023,100.597 135.166,100.690 135.331 C 100.873 135.658,102.126 134.130,103.200 132.270 C 105.988 127.442,106.401 116.885,104.001 111.812 C 103.148 110.007,101.766 108.333,101.131 108.333 L 100.631 108.333 100.576 121.682 M124.167 110.747 C 124.167 113.765,124.370 113.775,125.569 110.820 C 126.658 108.135,126.678 108.333,125.313 108.333 L 124.167 108.333 124.167 110.747 M182.409 108.587 C 182.264 109.054,182.072 119.583,182.208 119.583 C 182.280 119.583,183.181 119.161,184.211 118.646 C 185.954 117.773,186.197 117.708,187.720 117.708 L 189.355 117.708 189.077 116.823 C 188.924 116.336,188.581 115.469,188.314 114.896 C 187.913 114.033,187.810 113.388,187.717 111.146 L 187.604 108.438 185.048 108.379 C 183.111 108.335,182.472 108.385,182.409 108.587 M215.723 110.885 C 215.717 113.341,215.688 113.510,214.942 115.360 C 213.896 117.954,213.847 117.829,215.909 117.820 C 217.562 117.813,217.740 117.858,219.346 118.698 C 220.277 119.185,221.087 119.583,221.145 119.583 C 221.203 119.583,221.250 117.052,221.250 113.958 L 221.250 108.333 218.490 108.333 L 215.729 108.333 215.723 110.885 M342.423 109.323 C 342.241 110.705,342.642 120.172,343.022 123.438 C 344.919 139.756,349.070 141.071,351.242 126.042 C 351.861 121.763,352.452 111.526,352.198 109.494 L 352.053 108.333 347.304 108.333 L 342.554 108.333 342.423 109.323 M373.264 108.472 C 373.077 108.659,373.114 114.794,373.305 115.278 C 373.718 116.326,377.500 110.321,377.500 108.617 C 377.500 108.316,373.555 108.181,373.264 108.472 M193.792 125.418 C 194.225 126.178,194.610 126.205,195.294 125.521 L 195.814 125.000 201.501 125.003 C 207.618 125.006,208.046 125.047,208.236 125.647 C 208.419 126.223,209.004 126.130,209.688 125.417 C 210.600 124.464,212.843 124.871,214.027 126.203 C 215.348 127.690,210.993 129.494,209.595 128.039 C 208.767 127.177,208.390 127.097,208.296 127.760 C 208.203 128.416,206.026 128.597,200.104 128.444 L 195.521 128.325 195.070 127.775 L 194.618 127.225 193.899 127.987 C 192.915 129.031,191.664 128.966,189.956 127.782 C 188.792 126.976,188.912 126.361,190.407 125.469 C 191.976 124.534,193.278 124.514,193.792 125.418 M181.283 129.537 C 181.045 132.055,180.638 134.425,180.296 135.292 C 180.148 135.666,180.218 135.681,181.476 135.547 C 185.494 135.121,187.169 135.164,190.260 135.773 C 190.798 135.878,190.833 135.840,190.833 135.157 C 190.833 134.437,190.820 134.427,189.635 134.193 C 186.293 133.536,182.083 129.858,182.083 127.596 C 182.083 127.457,181.960 127.240,181.809 127.115 C 181.586 126.930,181.487 127.385,181.283 129.537 M220.925 128.590 C 219.473 131.607,217.301 133.335,213.984 134.114 C 212.522 134.457,212.076 135.062,212.771 135.757 C 212.803 135.789,213.716 135.669,214.800 135.490 C 216.707 135.176,219.466 135.197,222.105 135.546 L 223.064 135.672 222.794 134.347 C 222.645 133.617,222.375 131.667,222.194 130.012 C 222.012 128.357,221.837 126.976,221.805 126.944 C 221.772 126.911,221.376 127.652,220.925 128.590 M203.750 129.976 C 203.750 130.435,203.213 130.618,201.849 130.622 C 200.307 130.627,199.583 130.420,199.583 129.974 C 199.583 129.618,199.769 129.583,201.667 129.583 C 203.568 129.583,203.750 129.618,203.750 129.976 M204.375 132.083 L 204.375 132.708 201.764 132.708 C 199.636 132.708,199.131 132.651,199.034 132.396 C 198.717 131.572,199.047 131.458,201.764 131.458 L 204.375 131.458 204.375 132.083 M204.836 134.167 L 204.928 134.792 201.735 134.792 L 198.542 134.792 198.542 134.167 L 198.542 133.542 201.643 133.542 L 204.744 133.542 204.836 134.167 M205.052 135.972 C 205.624 136.318,205.183 137.450,204.427 137.575 C 203.418 137.741,199.915 137.741,198.906 137.575 C 197.940 137.415,197.696 136.145,198.594 135.946 C 199.861 135.664,204.575 135.684,205.052 135.972 M204.792 139.167 L 204.792 139.792 201.667 139.792 L 198.542 139.792 198.542 139.167 L 198.542 138.542 201.667 138.542 L 204.792 138.542 204.792 139.167 M203.094 140.759 C 204.245 140.879,204.375 140.940,204.375 141.363 C 204.375 141.930,202.360 142.229,200.212 141.980 C 198.560 141.788,198.293 140.917,199.844 140.778 C 201.515 140.627,201.817 140.625,203.094 140.759 M203.921 143.237 C 205.076 143.580,205.113 143.649,204.782 144.837 C 203.765 148.501,198.703 148.145,198.658 144.407 L 198.646 143.438 199.583 143.194 C 200.918 142.847,202.666 142.865,203.921 143.237 M202.520 148.608 C 203.485 148.351,203.784 148.732,204.083 150.605 C 204.244 151.607,204.213 151.619,203.209 150.938 C 202.051 150.151,200.992 150.225,199.955 151.162 C 198.906 152.110,198.876 152.059,199.389 150.208 C 199.929 148.258,199.846 148.350,200.829 148.612 C 201.429 148.773,201.909 148.772,202.520 148.608 " stroke="none" fill="#000000" fill-rule="evenodd"></path><path id="path2" d="M201.317 65.674 C 200.734 66.318,197.211 71.230,196.873 71.871 C 196.567 72.452,196.692 87.270,197.077 96.042 C 197.480 105.242,197.746 113.079,197.779 116.787 L 197.813 120.553 196.967 122.256 C 196.054 124.095,196.070 124.165,197.272 123.552 C 200.440 121.936,200.421 122.030,200.420 107.683 C 200.420 90.722,200.862 75.588,201.384 74.744 C 201.577 74.431,202.035 74.986,202.159 75.685 C 202.561 77.938,202.756 84.760,202.888 101.263 L 203.038 119.921 203.618 121.107 C 204.242 122.382,205.493 123.442,206.645 123.673 L 207.269 123.798 206.499 122.368 L 205.729 120.938 205.766 114.375 C 205.786 110.766,205.907 105.422,206.034 102.500 C 206.670 87.889,206.877 72.449,206.448 71.647 C 206.246 71.270,202.290 65.821,201.885 65.362 C 201.808 65.274,201.552 65.415,201.317 65.674 M348.646 77.222 C 345.127 77.989,344.927 78.188,345.316 80.537 L 345.624 82.396 344.951 82.917 C 341.285 85.754,339.620 88.642,337.813 95.300 C 331.582 118.253,341.541 146.819,352.093 136.260 C 362.911 125.437,360.934 86.527,349.371 82.672 C 349.217 82.621,349.247 81.804,349.468 80.025 C 349.847 76.961,349.847 76.961,348.646 77.222 M159.271 77.792 C 156.951 78.447,156.656 78.629,156.780 79.327 C 157.237 81.909,159.379 92.573,159.455 92.649 C 159.508 92.703,159.604 92.339,159.667 91.842 C 160.125 88.222,160.899 82.478,161.153 80.808 C 161.532 78.320,161.545 77.287,161.198 77.307 C 161.055 77.315,160.187 77.533,159.271 77.792 M77.740 81.526 C 77.607 81.850,77.256 82.975,76.959 84.026 C 76.662 85.077,76.103 86.969,75.716 88.229 C 75.329 89.490,73.942 94.224,72.633 98.750 C 62.551 133.625,62.007 135.393,60.734 137.448 L 60.185 138.333 63.612 138.333 L 67.040 138.333 67.687 137.326 C 68.523 136.021,68.519 136.011,67.289 136.478 C 64.663 137.476,64.531 137.262,65.537 133.629 C 65.947 132.149,66.599 129.727,66.987 128.247 C 67.822 125.057,67.637 125.216,70.544 125.212 C 73.813 125.207,74.778 125.364,74.878 125.914 C 75.130 127.297,75.896 134.383,75.991 136.198 L 76.102 138.333 81.126 138.333 L 86.150 138.333 86.808 137.240 C 87.597 135.929,87.595 135.925,86.437 136.450 C 85.202 137.010,84.618 136.997,84.488 136.406 C 84.374 135.892,80.806 105.310,79.159 90.729 C 77.966 80.164,78.057 80.756,77.740 81.526 M254.427 81.608 L 252.500 82.141 252.498 83.831 L 252.495 85.521 251.925 84.792 C 249.089 81.162,246.160 81.711,242.272 86.604 C 233.922 97.112,233.776 124.760,242.016 135.371 C 246.772 141.496,253.038 138.158,256.059 127.892 L 256.515 126.342 255.780 124.681 C 255.376 123.768,254.809 122.608,254.519 122.104 L 253.993 121.187 253.849 122.208 C 252.790 129.726,250.275 135.833,248.237 135.833 C 242.292 135.833,241.072 92.444,246.835 85.964 C 247.853 84.819,249.387 84.841,250.528 86.016 C 251.821 87.347,254.049 92.254,254.466 94.688 C 254.545 95.146,254.740 95.755,254.901 96.042 L 255.194 96.563 255.201 95.981 C 255.205 95.661,255.580 92.801,256.035 89.626 C 257.441 79.808,257.624 80.723,254.427 81.608 M226.885 82.592 C 226.335 83.254,224.103 84.553,220.138 86.517 C 210.438 91.322,208.610 95.839,211.287 108.393 C 212.313 113.206,212.277 114.066,210.933 116.821 C 210.070 118.590,209.984 121.468,210.804 121.141 C 213.663 120.000,217.212 121.507,218.012 124.202 C 219.150 128.034,216.386 131.023,211.622 131.115 L 209.806 131.150 208.902 132.036 L 207.999 132.922 208.831 134.596 C 210.191 137.332,209.937 138.818,207.907 140.006 C 207.134 140.458,206.964 140.685,206.735 141.569 C 206.369 142.978,206.359 142.953,207.240 142.798 C 208.669 142.547,209.674 141.949,211.146 140.474 L 212.604 139.012 215.208 138.868 C 218.843 138.666,223.230 139.128,226.840 140.091 C 227.799 140.347,227.935 140.348,227.837 140.092 C 225.470 133.925,224.942 125.261,226.236 113.854 L 226.922 107.813 226.755 99.063 C 226.553 88.413,226.582 86.187,226.953 84.052 C 227.268 82.237,227.264 82.136,226.885 82.592 M176.337 83.177 C 176.862 85.732,176.908 87.472,176.658 95.208 C 176.374 103.978,176.509 108.156,177.297 115.000 C 178.343 124.091,177.965 132.333,176.242 137.949 C 175.440 140.565,175.398 140.452,176.994 139.996 C 179.440 139.296,182.677 138.889,185.938 138.871 C 190.557 138.846,190.773 138.905,192.434 140.634 C 193.801 142.058,194.617 142.526,196.198 142.792 C 196.964 142.921,196.965 142.921,196.627 141.458 C 196.398 140.467,196.300 140.344,195.362 139.868 C 193.493 138.921,193.260 137.024,194.680 134.307 L 195.459 132.815 194.627 132.076 C 193.832 131.370,193.691 131.326,191.519 131.112 C 188.019 130.766,186.248 129.688,185.505 127.453 C 184.115 123.269,187.522 119.953,192.115 121.020 C 193.428 121.325,193.553 119.103,192.367 116.536 C 191.773 115.251,191.587 114.555,191.509 113.325 C 191.409 111.740,191.457 111.432,192.609 106.250 C 194.881 96.024,192.321 90.876,182.604 86.136 C 180.427 85.074,178.137 83.821,177.514 83.352 C 176.153 82.327,176.163 82.328,176.337 83.177 M136.630 82.820 C 136.552 82.939,133.961 89.501,130.871 97.403 C 125.057 112.271,124.621 113.333,124.336 113.333 C 124.243 113.333,124.167 107.064,124.167 99.401 C 124.167 91.738,124.108 85.176,124.036 84.818 L 123.906 84.167 119.250 84.167 L 114.593 84.167 114.261 84.673 C 113.879 85.257,113.071 87.307,113.181 87.417 C 113.221 87.457,113.754 87.300,114.366 87.068 C 114.978 86.835,115.558 86.724,115.655 86.822 C 115.752 86.919,115.856 99.275,115.885 114.280 L 115.938 141.563 116.506 140.208 C 116.819 139.464,118.818 134.401,120.949 128.958 C 126.328 115.218,128.096 110.780,128.332 110.417 C 128.465 110.212,128.536 114.627,128.538 123.252 C 128.540 130.484,128.601 136.835,128.674 137.367 L 128.807 138.333 133.742 138.333 C 139.270 138.333,139.028 138.398,139.893 136.688 C 140.237 136.007,140.236 135.987,139.865 136.144 C 138.347 136.785,137.261 137.122,137.132 136.993 C 137.048 136.909,136.932 124.637,136.875 109.722 C 136.818 94.807,136.707 82.701,136.630 82.820 M166.304 83.162 C 166.161 83.335,165.733 84.311,165.352 85.332 C 164.777 86.870,161.190 96.121,155.359 111.102 C 154.766 112.625,154.221 113.733,154.088 113.689 C 153.918 113.632,153.854 109.595,153.854 98.941 L 153.854 84.271 149.150 84.215 C 144.834 84.164,144.418 84.190,144.105 84.536 C 143.782 84.894,142.619 87.708,142.795 87.708 C 142.841 87.708,143.352 87.463,143.931 87.162 C 145.798 86.193,145.623 83.410,145.638 114.316 L 145.651 141.771 148.629 134.271 C 150.267 130.146,152.796 123.724,154.250 120.000 C 157.533 111.591,157.935 110.625,158.156 110.625 C 158.254 110.625,158.333 116.861,158.333 124.483 L 158.333 138.340 163.590 138.285 L 168.846 138.229 169.341 137.331 C 169.963 136.205,169.936 136.185,168.429 136.657 C 167.632 136.906,167.113 136.974,166.979 136.846 C 166.843 136.715,166.754 127.615,166.722 110.563 C 166.669 81.901,166.681 82.703,166.304 83.162 M363.552 83.842 C 363.321 84.121,362.292 86.613,362.292 86.894 C 362.292 86.976,362.774 86.860,363.364 86.636 C 363.953 86.412,364.562 86.277,364.717 86.337 C 364.950 86.426,364.998 90.474,364.998 110.305 C 364.999 132.352,364.925 136.060,364.459 137.556 C 364.351 137.902,364.667 137.920,369.814 137.868 L 375.284 137.813 375.865 136.823 C 376.517 135.712,376.528 135.722,375.123 136.148 C 374.561 136.319,373.881 136.458,373.613 136.458 L 373.125 136.458 373.127 127.656 L 373.129 118.854 374.429 118.021 C 381.003 113.807,385.384 102.907,383.371 95.773 C 382.045 91.071,378.194 86.574,373.333 84.047 C 372.373 83.547,363.943 83.371,363.552 83.842 M260.459 84.740 C 260.024 85.752,259.687 86.877,259.821 86.873 C 259.862 86.871,260.394 86.738,261.002 86.576 C 261.859 86.347,262.130 86.338,262.206 86.535 C 262.375 86.977,262.167 136.744,261.993 137.344 L 261.826 137.917 267.759 137.917 C 271.022 137.917,274.108 137.860,274.616 137.790 L 275.539 137.663 277.567 132.865 C 278.683 130.227,279.559 128.032,279.515 127.988 C 279.471 127.944,278.702 128.765,277.805 129.813 C 275.523 132.481,272.011 135.208,270.856 135.208 C 270.608 135.208,270.507 109.392,270.751 108.172 L 270.877 107.542 272.243 107.932 C 274.086 108.460,275.538 109.373,277.620 111.316 L 279.364 112.944 278.859 111.802 C 277.929 109.699,275.886 105.735,275.464 105.214 C 275.077 104.737,274.887 104.694,272.836 104.618 L 270.625 104.536 270.625 95.497 C 270.625 87.026,270.648 86.459,270.990 86.463 C 272.188 86.478,274.726 88.368,277.661 91.431 C 279.626 93.482,279.648 93.808,277.463 88.542 C 276.774 86.880,275.981 85.122,275.700 84.635 L 275.191 83.750 268.038 83.750 L 260.885 83.750 260.459 84.740 M282.702 84.179 C 282.575 84.415,282.244 85.214,281.966 85.953 L 281.459 87.298 282.494 86.774 C 283.788 86.118,283.878 86.121,284.069 86.823 C 284.252 87.499,284.217 133.943,284.032 136.302 L 283.905 137.917 289.125 137.917 C 294.838 137.917,294.645 137.957,295.333 136.628 C 295.750 135.820,295.697 135.790,294.488 136.153 C 293.931 136.321,293.256 136.458,292.988 136.458 L 292.500 136.458 292.500 110.104 L 292.500 83.750 287.716 83.750 C 283.098 83.750,282.923 83.765,282.702 84.179 M303.530 84.341 C 297.779 88.011,295.225 95.539,294.896 109.792 C 294.762 115.625,294.455 121.048,294.154 122.882 C 293.836 124.825,293.808 124.770,294.962 124.470 C 298.260 123.615,299.830 127.215,299.484 134.844 L 299.344 137.917 304.014 137.917 L 308.684 137.917 309.267 136.845 L 309.850 135.773 309.248 135.933 C 306.948 136.542,307.169 136.834,306.994 132.968 C 306.607 124.427,303.818 120.631,298.409 121.283 C 296.701 121.488,296.836 121.705,297.292 119.478 C 298.067 115.691,298.746 110.579,299.270 104.586 C 300.388 91.780,301.838 86.250,304.078 86.250 C 304.837 86.250,304.048 92.544,302.916 95.523 C 302.651 96.218,302.881 96.159,305.625 94.820 C 307.939 93.691,307.936 93.697,307.973 89.792 C 308.020 84.878,306.196 82.640,303.530 84.341 M312.233 86.300 C 311.005 89.029,309.375 92.893,309.375 93.076 C 309.375 93.136,310.383 92.154,311.615 90.892 C 314.429 88.008,316.868 86.250,318.053 86.250 C 318.214 86.250,317.990 136.778,317.826 137.344 L 317.660 137.917 322.944 137.913 C 328.790 137.910,328.449 137.979,329.224 136.638 L 329.782 135.672 328.518 136.065 C 327.823 136.281,327.075 136.458,326.856 136.458 C 326.467 136.458,326.458 135.929,326.458 111.340 L 326.458 86.222 326.927 86.367 C 329.039 87.020,331.394 89.018,335.259 93.438 C 335.509 93.723,335.406 93.466,333.214 88.333 L 331.301 83.854 322.342 83.800 L 313.383 83.746 312.233 86.300 M12.436 84.539 C 12.106 84.904,11.425 86.334,11.160 87.219 L 11.026 87.668 12.232 87.178 C 12.895 86.908,13.511 86.762,13.602 86.852 C 13.692 86.942,13.739 98.562,13.706 112.674 L 13.646 138.333 17.865 138.333 L 22.083 138.333 22.105 132.135 C 22.118 128.727,22.141 117.125,22.157 106.354 L 22.188 86.771 24.375 86.771 L 26.563 86.771 26.612 97.500 C 26.639 103.401,26.662 115.003,26.664 123.281 L 26.667 138.333 31.825 138.333 C 36.515 138.333,37.003 138.300,37.202 137.969 C 37.322 137.768,37.628 137.261,37.883 136.841 L 38.345 136.077 37.295 136.476 C 36.718 136.695,35.965 136.875,35.623 136.875 L 35.000 136.875 35.000 111.172 C 35.000 97.035,34.941 85.176,34.870 84.818 L 34.740 84.167 23.756 84.167 C 13.475 84.167,12.751 84.190,12.436 84.539 M42.100 84.768 C 41.646 85.406,40.778 87.305,40.889 87.417 C 40.926 87.454,41.492 87.286,42.148 87.044 C 42.804 86.803,43.376 86.642,43.420 86.688 C 43.786 87.075,43.607 136.764,43.235 137.865 L 43.076 138.333 48.507 138.333 L 53.937 138.333 54.442 137.656 C 54.720 137.284,55.048 136.784,55.170 136.546 L 55.393 136.114 54.311 136.488 C 53.716 136.693,52.924 136.864,52.552 136.868 L 51.875 136.875 51.875 128.672 C 51.875 118.761,51.776 119.416,53.444 118.329 C 60.346 113.832,64.500 102.656,61.999 95.313 C 60.590 91.177,56.765 86.925,52.558 84.816 L 51.262 84.167 46.895 84.167 L 42.528 84.167 42.100 84.768 M90.661 84.518 C 89.901 85.946,89.399 87.541,89.745 87.428 C 91.555 86.833,91.898 86.784,92.097 87.089 C 92.327 87.444,92.214 136.041,91.979 137.448 L 91.831 138.333 95.875 138.333 C 101.300 138.333,103.677 136.973,106.974 131.984 C 112.331 123.877,111.701 112.364,105.683 108.379 C 105.250 108.093,104.816 107.787,104.718 107.699 C 104.620 107.612,105.173 106.664,105.946 105.593 C 111.489 97.917,110.037 88.543,102.748 84.952 L 101.365 84.271 96.113 84.206 C 91.219 84.145,90.848 84.167,90.661 84.518 M102.519 88.847 C 105.430 94.276,105.164 103.271,101.992 106.666 C 101.259 107.451,101.168 107.986,101.688 108.455 C 106.873 113.116,107.002 127.345,101.923 134.240 C 100.304 136.438,100.367 137.078,100.495 119.723 C 100.557 111.453,100.611 100.636,100.616 95.684 L 100.625 86.680 101.082 86.849 C 101.365 86.954,101.910 87.712,102.519 88.847 M374.551 87.617 C 378.688 92.317,380.095 101.219,377.791 108.111 C 376.594 111.691,374.018 115.944,373.312 115.507 C 373.108 115.382,373.053 88.327,373.255 87.321 C 373.427 86.460,373.560 86.491,374.551 87.617 M53.812 88.720 C 57.594 93.879,58.768 101.713,56.733 108.224 C 55.625 111.768,52.780 116.585,52.156 115.972 C 51.950 115.771,51.789 89.805,51.983 88.178 C 52.145 86.816,52.491 86.918,53.812 88.720 M346.750 88.177 C 346.917 88.779,347.172 89.967,347.317 90.818 C 347.622 92.615,347.743 92.425,348.132 89.530 C 348.465 87.048,348.777 86.931,349.545 88.998 C 353.045 98.428,353.100 123.833,349.641 133.423 C 344.719 147.069,339.883 114.340,343.780 93.750 C 344.494 89.973,345.524 87.083,346.155 87.083 C 346.329 87.083,346.569 87.523,346.750 88.177 M221.860 92.708 C 221.469 98.893,221.228 107.589,221.288 113.302 C 221.324 116.757,221.283 119.584,221.197 119.583 C 221.110 119.583,220.278 119.185,219.347 118.698 C 217.725 117.850,217.580 117.814,215.910 117.839 C 213.836 117.870,213.820 117.838,214.795 115.616 C 215.795 113.339,216.086 110.931,215.643 108.604 C 213.722 98.517,214.714 94.613,220.094 91.086 C 222.094 89.775,222.048 89.733,221.860 92.708 M183.912 91.387 C 188.372 94.449,189.464 98.311,188.111 106.244 C 187.457 110.077,187.587 113.308,188.474 115.313 C 189.592 117.836,189.665 117.643,187.549 117.745 C 185.836 117.827,185.589 117.898,183.925 118.798 L 182.139 119.764 182.151 109.830 C 182.159 103.803,182.066 98.708,181.914 96.875 C 181.776 95.214,181.603 93.066,181.529 92.103 L 181.394 90.352 182.103 90.492 C 182.493 90.569,183.307 90.972,183.912 91.387 M72.925 109.023 C 72.930 109.388,73.240 112.266,73.613 115.417 C 74.487 122.788,74.705 122.083,71.551 122.083 C 70.138 122.083,68.934 122.004,68.874 121.907 C 68.779 121.753,72.008 109.456,72.397 108.491 C 72.613 107.955,72.915 108.259,72.925 109.023 M191.080 125.108 C 189.062 125.984,188.739 126.701,189.921 127.675 C 191.424 128.914,193.020 128.981,194.013 127.845 L 194.588 127.188 195.062 127.760 L 195.536 128.333 201.827 128.333 L 208.117 128.333 208.248 127.813 C 208.424 127.109,208.746 127.157,209.575 128.012 C 210.961 129.442,215.329 127.668,214.027 126.203 C 212.844 124.872,210.575 124.458,209.720 125.417 C 209.089 126.125,208.421 126.231,208.238 125.651 C 208.057 125.081,207.228 125.005,201.188 125.002 L 195.814 125.000 195.294 125.521 C 194.615 126.200,194.292 126.178,193.750 125.417 C 193.238 124.698,192.279 124.587,191.080 125.108 M182.288 128.073 C 183.598 131.279,186.245 133.472,189.635 134.161 C 190.824 134.403,190.833 134.410,190.833 135.146 L 190.833 135.888 190.052 135.755 C 186.672 135.181,185.402 135.127,182.867 135.449 C 179.844 135.834,180.114 135.948,180.498 134.450 C 180.810 133.229,181.135 130.924,181.368 128.281 C 181.519 126.565,181.659 126.533,182.288 128.073 M222.304 130.524 C 222.522 132.437,222.794 134.339,222.907 134.750 C 223.179 135.735,223.328 135.698,220.277 135.402 C 217.948 135.175,217.296 135.187,215.208 135.489 C 213.891 135.680,212.742 135.836,212.656 135.835 C 212.570 135.834,212.500 135.515,212.500 135.127 C 212.500 134.421,212.502 134.420,213.979 134.086 C 217.123 133.376,219.348 131.618,220.873 128.639 C 221.362 127.684,221.795 126.934,221.835 126.974 C 221.875 127.014,222.086 128.612,222.304 130.524 M199.583 129.980 C 199.583 130.299,199.789 130.406,200.625 130.521 C 202.213 130.739,203.750 130.474,203.750 129.980 C 203.750 129.616,203.577 129.583,201.667 129.583 C 199.756 129.583,199.583 129.616,199.583 129.980 M199.198 131.643 C 198.208 132.270,199.031 132.603,201.721 132.662 L 204.375 132.721 204.375 132.090 L 204.375 131.458 201.927 131.462 C 200.581 131.463,199.353 131.545,199.198 131.643 M198.542 134.167 L 198.542 134.792 201.667 134.792 L 204.792 134.792 204.792 134.167 L 204.792 133.542 201.667 133.542 L 198.542 133.542 198.542 134.167 M200.521 135.782 C 198.359 135.890,198.125 135.985,198.125 136.752 C 198.125 137.557,198.687 137.708,201.667 137.708 C 204.653 137.708,205.208 137.557,205.208 136.746 C 205.208 136.192,205.113 136.029,204.740 135.951 C 204.081 135.813,201.759 135.719,200.521 135.782 M198.542 139.167 L 198.542 139.792 201.667 139.792 L 204.792 139.792 204.792 139.167 L 204.792 138.542 201.667 138.542 L 198.542 138.542 198.542 139.167 M200.208 140.808 C 198.590 140.991,198.523 141.702,200.104 141.903 C 202.224 142.173,204.375 141.881,204.375 141.323 C 204.375 140.884,204.282 140.833,203.464 140.833 C 202.962 140.833,202.283 140.799,201.953 140.756 C 201.624 140.714,200.839 140.737,200.208 140.808 M199.688 143.197 C 198.413 143.492,198.196 144.300,199.012 145.723 C 200.591 148.480,204.039 147.829,204.756 144.637 C 205.096 143.125,202.810 142.476,199.688 143.197 M199.478 149.896 C 199.291 150.583,199.086 151.327,199.022 151.549 C 198.934 151.854,199.119 151.770,199.781 151.203 C 201.045 150.121,201.518 150.062,202.957 150.804 C 204.290 151.492,204.309 151.470,203.841 149.805 L 203.516 148.646 201.667 148.646 L 199.817 148.646 199.478 149.896 " stroke="none" fill="#fdfefd" fill-rule="evenodd"></path></g></svg>